<?xml version="1.0" encoding="utf-8"?>
<!-- Generator: Adobe Illustrator 25.2.3, SVG Export Plug-In . SVG Version: 6.00 Build 0)  -->
<svg version="1.1" id="Layer_1" xmlns="http://www.w3.org/2000/svg" xmlns:xlink="http://www.w3.org/1999/xlink" x="0px" y="0px"
	 viewBox="0 0 600 74.9" style="enable-background:new 0 0 600 74.9;" xml:space="preserve">
<style type="text/css">
	.st0{fill:url(#SVGID_1_);}
	.st1{opacity:6.000000e-02;fill:url(#SVGID_2_);}
	.st2{fill:#FFFFFF;}
	.st3{fill:#FFC200;}
</style>
<linearGradient id="SVGID_1_" gradientUnits="userSpaceOnUse" x1="27.4356" y1="37.4703" x2="572.5643" y2="37.4703">
	<stop  offset="0" style="stop-color:#383689"/>
	<stop  offset="0.2895" style="stop-color:#38388C"/>
	<stop  offset="0.4641" style="stop-color:#393D94"/>
	<stop  offset="0.6082" style="stop-color:#3A46A2"/>
	<stop  offset="0.7357" style="stop-color:#3B53B7"/>
	<stop  offset="0.8522" style="stop-color:#3D63D1"/>
	<stop  offset="0.9592" style="stop-color:#3F77F1"/>
	<stop  offset="1" style="stop-color:#4080FF"/>
</linearGradient>
<path class="st0" d="M564,68.6H36c-4.7,0-8.6-3.8-8.6-8.6V14.9c0-4.7,3.8-8.6,8.6-8.6h528c4.7,0,8.6,3.8,8.6,8.6V60
	C572.6,64.8,568.7,68.6,564,68.6z"/>
<radialGradient id="SVGID_2_" cx="300" cy="37.4703" r="193.985" gradientUnits="userSpaceOnUse">
	<stop  offset="0.5782" style="stop-color:#FFFFFF;stop-opacity:0"/>
	<stop  offset="0.9404" style="stop-color:#FFFFFF;stop-opacity:0.8587"/>
	<stop  offset="1" style="stop-color:#FFFFFF"/>
</radialGradient>
<path class="st1" d="M564,68.6H36c-4.7,0-8.6-3.8-8.6-8.6V14.9c0-4.7,3.8-8.6,8.6-8.6h528c4.7,0,8.6,3.8,8.6,8.6V60
	C572.6,64.8,568.7,68.6,564,68.6z"/>
<g>
	<path class="st2" d="M46.9,29c1.4,0,2.6,0.5,3.6,1.4c1,0.9,1.4,2.1,1.4,3.5s-0.5,2.5-1.4,3.5c-1,0.9-2.1,1.4-3.6,1.4h-2.6v4.8h-2.9
		V29H46.9z M46.9,36.1c0.6,0,1.1-0.2,1.5-0.6c0.4-0.4,0.6-1,0.6-1.6c0-0.6-0.2-1.2-0.6-1.6c-0.4-0.4-0.9-0.6-1.5-0.6h-2.6v4.4H46.9z
		"/>
	<path class="st2" d="M56.4,35c0.3-0.7,0.7-1.2,1.2-1.5c0.6-0.3,1.2-0.5,1.9-0.5v3c-0.8-0.1-1.6,0.1-2.2,0.5c-0.6,0.4-1,1.1-1,2.2v5
		h-2.7V33.2h2.7V35z"/>
	<path class="st2" d="M70,42.3c-1.1,1.1-2.4,1.6-3.9,1.6s-2.9-0.5-3.9-1.6s-1.6-2.4-1.6-3.9c0-1.5,0.5-2.9,1.6-3.9
		c1.1-1.1,2.4-1.6,3.9-1.6s2.9,0.5,3.9,1.6c1.1,1.1,1.6,2.4,1.6,3.9C71.6,39.9,71.1,41.2,70,42.3z M64.1,40.4c0.5,0.5,1.2,0.8,2,0.8
		s1.5-0.3,2-0.8s0.8-1.2,0.8-2.1s-0.3-1.5-0.8-2.1s-1.2-0.8-2-0.8s-1.5,0.3-2,0.8c-0.5,0.5-0.8,1.2-0.8,2.1S63.5,39.9,64.1,40.4z"/>
	<path class="st2" d="M81.4,29h2.7v14.6h-2.7v-1.2c-0.8,1-1.9,1.5-3.4,1.5c-1.4,0-2.6-0.5-3.6-1.6S73,39.9,73,38.4
		c0-1.5,0.5-2.9,1.5-3.9c1-1.1,2.2-1.6,3.6-1.6c1.5,0,2.6,0.5,3.4,1.5V29z M76.5,40.5c0.6,0.6,1.2,0.8,2.1,0.8s1.5-0.3,2.1-0.8
		c0.5-0.6,0.8-1.3,0.8-2.1s-0.3-1.6-0.8-2.1c-0.5-0.6-1.2-0.8-2.1-0.8s-1.5,0.3-2.1,0.8c-0.6,0.6-0.8,1.3-0.8,2.1S75.9,40,76.5,40.5
		z"/>
	<path class="st2" d="M93.5,33.2h2.7v10.4h-2.7v-1.2c-0.7,1-1.7,1.5-3.1,1.5c-1.1,0-2.1-0.4-2.8-1.1c-0.7-0.8-1.1-1.8-1.1-3.2v-6.4
		h2.7v6.1c0,0.7,0.2,1.2,0.6,1.6c0.4,0.4,0.9,0.6,1.5,0.6c0.7,0,1.3-0.2,1.7-0.6c0.4-0.4,0.6-1.1,0.6-1.9V33.2z"/>
	<path class="st2" d="M103.6,43.9c-1.6,0-2.9-0.5-3.9-1.6c-1.1-1.1-1.6-2.4-1.6-3.9s0.5-2.9,1.6-3.9c1.1-1.1,2.4-1.6,3.9-1.6
		c1,0,1.9,0.2,2.8,0.7c0.8,0.5,1.5,1.1,1.9,2l-2.3,1.4c-0.2-0.4-0.5-0.8-1-1c-0.4-0.3-0.9-0.4-1.4-0.4c-0.8,0-1.5,0.3-2,0.8
		c-0.5,0.5-0.8,1.2-0.8,2.1c0,0.8,0.3,1.5,0.8,2c0.5,0.5,1.2,0.8,2,0.8c0.5,0,1-0.1,1.5-0.4c0.4-0.2,0.7-0.6,1-1l2.3,1.3
		c-0.5,0.8-1.1,1.5-1.9,2C105.6,43.6,104.7,43.9,103.6,43.9z"/>
	<path class="st2" d="M115.8,35.7h-2.4v4.3c0,0.4,0.1,0.6,0.3,0.8c0.2,0.2,0.4,0.3,0.8,0.3c0.3,0,0.8,0,1.3,0v2.4
		c-1.9,0.2-3.2,0-3.9-0.5s-1.1-1.6-1.1-3v-4.3H109v-2.6h1.8V31l2.7-0.8v2.9h2.4V35.7z"/>
	<path class="st2" d="M128.7,43.9c-1.6,0-3-0.5-4-1.4c-1-0.9-1.6-2.2-1.6-3.7V29h2.9v9.6c0,0.8,0.2,1.4,0.7,1.8
		c0.4,0.4,1.1,0.7,2.1,0.7s1.6-0.2,2.1-0.7c0.4-0.4,0.7-1.1,0.7-1.8V29h2.9v9.8c0,1.5-0.5,2.8-1.6,3.7
		C131.7,43.4,130.4,43.9,128.7,43.9z"/>
	<path class="st2" d="M142.9,32.9c1.4,0,2.6,0.5,3.6,1.6c1,1.1,1.5,2.4,1.5,3.9c0,1.5-0.5,2.9-1.5,3.9c-1,1.1-2.2,1.6-3.6,1.6
		c-1.5,0-2.6-0.5-3.4-1.5v5.4h-2.7V33.2h2.7v1.2C140.3,33.4,141.4,32.9,142.9,32.9z M140.3,40.5c0.5,0.6,1.2,0.8,2.1,0.8
		s1.5-0.3,2.1-0.8c0.6-0.6,0.8-1.3,0.8-2.1s-0.3-1.6-0.8-2.1c-0.6-0.6-1.2-0.8-2.1-0.8s-1.5,0.3-2.1,0.8c-0.5,0.6-0.8,1.3-0.8,2.1
		S139.7,40,140.3,40.5z"/>
	<path class="st2" d="M157.8,29h2.7v14.6h-2.7v-1.2c-0.8,1-1.9,1.5-3.4,1.5c-1.4,0-2.6-0.5-3.6-1.6s-1.5-2.4-1.5-3.9
		c0-1.5,0.5-2.9,1.5-3.9c1-1.1,2.2-1.6,3.6-1.6c1.5,0,2.6,0.5,3.4,1.5V29z M152.8,40.5c0.6,0.6,1.2,0.8,2.1,0.8s1.5-0.3,2.1-0.8
		c0.5-0.6,0.8-1.3,0.8-2.1s-0.3-1.6-0.8-2.1c-0.5-0.6-1.2-0.8-2.1-0.8s-1.5,0.3-2.1,0.8c-0.6,0.6-0.8,1.3-0.8,2.1
		S152.3,40,152.8,40.5z"/>
	<path class="st2" d="M170.9,33.2h2.7v10.4h-2.7v-1.2c-0.8,1-1.9,1.5-3.4,1.5c-1.4,0-2.6-0.5-3.6-1.6c-1-1.1-1.5-2.4-1.5-3.9
		c0-1.5,0.5-2.9,1.5-3.9c1-1.1,2.2-1.6,3.6-1.6c1.5,0,2.6,0.5,3.4,1.5V33.2z M165.9,40.5c0.5,0.6,1.2,0.8,2.1,0.8s1.5-0.3,2.1-0.8
		c0.6-0.6,0.8-1.3,0.8-2.1s-0.3-1.6-0.8-2.1c-0.6-0.6-1.2-0.8-2.1-0.8s-1.5,0.3-2.1,0.8c-0.5,0.6-0.8,1.3-0.8,2.1
		S165.4,40,165.9,40.5z"/>
	<path class="st2" d="M182,35.7h-2.4v4.3c0,0.4,0.1,0.6,0.3,0.8c0.2,0.2,0.4,0.3,0.8,0.3c0.3,0,0.8,0,1.3,0v2.4
		c-1.9,0.2-3.2,0-3.9-0.5s-1.1-1.6-1.1-3v-4.3h-1.8v-2.6h1.8V31l2.7-0.8v2.9h2.4V35.7z"/>
	<path class="st2" d="M186.4,39.5c0.4,1.3,1.3,2,2.9,2c1,0,1.8-0.3,2.3-1l2.2,1.3c-1,1.5-2.5,2.2-4.6,2.2c-1.7,0-3.1-0.5-4.2-1.6
		c-1-1-1.6-2.4-1.6-3.9c0-1.6,0.5-2.9,1.5-3.9c1-1.1,2.4-1.6,4-1.6c1.5,0,2.8,0.5,3.8,1.6c1,1.1,1.5,2.4,1.5,3.9
		c0,0.3,0,0.7-0.1,1.1H186.4z M186.3,37.4h5.3c-0.2-0.7-0.5-1.2-1-1.6c-0.5-0.3-1-0.5-1.6-0.5c-0.7,0-1.3,0.2-1.8,0.6
		C186.8,36.2,186.5,36.7,186.3,37.4z"/>
	<path class="st2" d="M199,35.9c-0.3,0.3-0.8,0.5-1.3,0.5s-0.9-0.2-1.3-0.5s-0.5-0.8-0.5-1.3c0-0.5,0.2-0.9,0.5-1.3
		c0.3-0.3,0.8-0.5,1.3-0.5s0.9,0.2,1.3,0.5c0.3,0.3,0.5,0.8,0.5,1.3C199.6,35.1,199.4,35.5,199,35.9z M199,43.4
		c-0.3,0.3-0.8,0.5-1.3,0.5s-0.9-0.2-1.3-0.5s-0.5-0.8-0.5-1.3c0-0.5,0.2-0.9,0.5-1.3c0.3-0.3,0.8-0.5,1.3-0.5s0.9,0.2,1.3,0.5
		c0.3,0.3,0.5,0.8,0.5,1.3C199.6,42.6,199.4,43,199,43.4z"/>
	<path class="st3" d="M210.1,40.8h6.2v2.8h-9V29h8.9v2.8h-6.1v3.1h5.5v2.7h-5.5V40.8z"/>
	<path class="st3" d="M227.8,43.6h-3.1l-2.3-3.2l-2.3,3.2H217l3.8-5.3l-3.7-5.1h3.1l2.1,2.9l2.1-2.9h3.1l-3.7,5.1L227.8,43.6z"/>
	<path class="st3" d="M237,33.2h2.7v10.4H237v-1.2c-0.8,1-1.9,1.5-3.4,1.5c-1.4,0-2.6-0.5-3.6-1.6c-1-1.1-1.5-2.4-1.5-3.9
		c0-1.5,0.5-2.9,1.5-3.9c1-1.1,2.2-1.6,3.6-1.6c1.5,0,2.6,0.5,3.4,1.5V33.2z M232.1,40.5c0.5,0.6,1.2,0.8,2.1,0.8s1.5-0.3,2.1-0.8
		c0.6-0.6,0.8-1.3,0.8-2.1s-0.3-1.6-0.8-2.1c-0.6-0.6-1.2-0.8-2.1-0.8s-1.5,0.3-2.1,0.8c-0.5,0.6-0.8,1.3-0.8,2.1
		S231.5,40,232.1,40.5z"/>
	<path class="st3" d="M242.2,43.6V28.3h2.7v15.3H242.2z"/>
	<path class="st3" d="M255.3,33.2h2.7v10.4h-2.7v-1.2c-0.8,1-1.9,1.5-3.4,1.5c-1.4,0-2.6-0.5-3.6-1.6c-1-1.1-1.5-2.4-1.5-3.9
		c0-1.5,0.5-2.9,1.5-3.9c1-1.1,2.2-1.6,3.6-1.6c1.5,0,2.6,0.5,3.4,1.5V33.2z M250.3,40.5c0.5,0.6,1.2,0.8,2.1,0.8s1.5-0.3,2.1-0.8
		c0.6-0.6,0.8-1.3,0.8-2.1s-0.3-1.6-0.8-2.1c-0.6-0.6-1.2-0.8-2.1-0.8s-1.5,0.3-2.1,0.8c-0.5,0.6-0.8,1.3-0.8,2.1
		S249.8,40,250.3,40.5z"/>
	<path class="st3" d="M266.4,35.7H264v4.3c0,0.4,0.1,0.6,0.3,0.8c0.2,0.2,0.4,0.3,0.8,0.3c0.3,0,0.8,0,1.3,0v2.4
		c-1.9,0.2-3.2,0-3.9-0.5s-1.1-1.6-1.1-3v-4.3h-1.8v-2.6h1.8V31l2.7-0.8v2.9h2.4V35.7z"/>
	<path class="st3" d="M270.7,39.5c0.4,1.3,1.3,2,2.9,2c1,0,1.8-0.3,2.3-1l2.2,1.3c-1,1.5-2.5,2.2-4.6,2.2c-1.7,0-3.1-0.5-4.2-1.6
		c-1-1-1.6-2.4-1.6-3.9c0-1.6,0.5-2.9,1.5-3.9c1-1.1,2.4-1.6,4-1.6c1.5,0,2.8,0.5,3.8,1.6c1,1.1,1.5,2.4,1.5,3.9
		c0,0.3,0,0.7-0.1,1.1H270.7z M270.7,37.4h5.3c-0.2-0.7-0.5-1.2-1-1.6c-0.5-0.3-1-0.5-1.6-0.5c-0.7,0-1.3,0.2-1.8,0.6
		C271.2,36.2,270.9,36.7,270.7,37.4z"/>
	<path class="st3" d="M287.2,31.9c-0.4,0-0.8-0.2-1.2-0.5c-0.3-0.3-0.5-0.7-0.5-1.2s0.2-0.8,0.5-1.2c0.3-0.3,0.7-0.5,1.2-0.5
		c0.5,0,0.9,0.2,1.2,0.5c0.3,0.3,0.5,0.7,0.5,1.2s-0.2,0.8-0.5,1.2C288,31.7,287.6,31.9,287.2,31.9z M285.8,43.6V33.2h2.7v10.4
		H285.8z"/>
	<path class="st3" d="M293.5,36.1c0,0.3,0.2,0.5,0.6,0.7c0.4,0.2,0.8,0.3,1.3,0.5c0.5,0.1,1.1,0.3,1.6,0.5c0.5,0.2,1,0.5,1.3,1
		s0.6,1.1,0.6,1.8c0,1.1-0.4,1.9-1.2,2.5s-1.8,0.9-3,0.9c-2.1,0-3.6-0.8-4.4-2.5l2.3-1.3c0.3,0.9,1,1.4,2,1.4c1,0,1.4-0.3,1.4-0.9
		c0-0.3-0.2-0.5-0.6-0.7c-0.4-0.2-0.8-0.3-1.3-0.5c-0.5-0.1-1.1-0.3-1.6-0.5c-0.5-0.2-1-0.5-1.3-1s-0.6-1-0.6-1.7
		c0-1,0.4-1.8,1.1-2.4c0.8-0.6,1.7-0.9,2.8-0.9c0.8,0,1.6,0.2,2.3,0.6c0.7,0.4,1.2,0.9,1.7,1.6l-2.3,1.3c-0.3-0.7-0.9-1.1-1.7-1.1
		c-0.3,0-0.6,0.1-0.9,0.2S293.5,35.9,293.5,36.1z"/>
	<path class="st3" d="M311.7,32.9c1.1,0,2.1,0.4,2.8,1.1c0.7,0.8,1.1,1.8,1.1,3.2v6.4H313v-6.1c0-0.7-0.2-1.2-0.6-1.6
		s-0.9-0.6-1.5-0.6c-0.7,0-1.3,0.2-1.7,0.6c-0.4,0.4-0.6,1.1-0.6,1.9v5.6h-2.7V33.2h2.7v1.2C309.3,33.3,310.3,32.9,311.7,32.9z"/>
	<path class="st3" d="M326.9,42.3c-1.1,1.1-2.4,1.6-3.9,1.6s-2.9-0.5-3.9-1.6c-1.1-1.1-1.6-2.4-1.6-3.9c0-1.5,0.5-2.9,1.6-3.9
		c1.1-1.1,2.4-1.6,3.9-1.6s2.9,0.5,3.9,1.6c1.1,1.1,1.6,2.4,1.6,3.9C328.5,39.9,328,41.2,326.9,42.3z M321,40.4
		c0.5,0.5,1.2,0.8,2,0.8c0.8,0,1.5-0.3,2-0.8c0.5-0.5,0.8-1.2,0.8-2.1s-0.3-1.5-0.8-2.1c-0.5-0.5-1.2-0.8-2-0.8
		c-0.8,0-1.5,0.3-2,0.8c-0.5,0.5-0.8,1.2-0.8,2.1S320.4,39.9,321,40.4z"/>
	<path class="st3" d="M342.2,33.2h2.9l-3.3,10.4h-2.6l-1.9-6.3l-1.9,6.3h-2.6l-3.3-10.4h2.9l1.8,6.4l1.9-6.4h2.5l1.9,6.4L342.2,33.2
		z"/>
	<path class="st3" d="M359.7,33.2h2.7v10.4h-2.7v-1.2c-0.8,1-1.9,1.5-3.4,1.5c-1.4,0-2.6-0.5-3.6-1.6s-1.5-2.4-1.5-3.9
		c0-1.5,0.5-2.9,1.5-3.9c1-1.1,2.2-1.6,3.6-1.6c1.5,0,2.6,0.5,3.4,1.5V33.2z M354.7,40.5c0.5,0.6,1.2,0.8,2.1,0.8s1.5-0.3,2.1-0.8
		c0.5-0.6,0.8-1.3,0.8-2.1s-0.3-1.6-0.8-2.1c-0.6-0.6-1.2-0.8-2.1-0.8s-1.5,0.3-2.1,0.8c-0.5,0.6-0.8,1.3-0.8,2.1
		S354.1,40,354.7,40.5z"/>
	<path class="st3" d="M377.1,43.9c-2.2,0-4-0.7-5.5-2.2c-1.4-1.5-2.2-3.3-2.2-5.4c0-2.2,0.7-4,2.2-5.4c1.4-1.5,3.3-2.2,5.5-2.2
		c1.3,0,2.5,0.3,3.7,0.9c1.1,0.6,2,1.5,2.6,2.5l-2.5,1.4c-0.4-0.7-0.9-1.2-1.5-1.5c-0.7-0.4-1.4-0.6-2.3-0.6c-1.4,0-2.6,0.4-3.4,1.3
		c-0.9,0.9-1.3,2-1.3,3.5c0,1.4,0.4,2.6,1.3,3.4c0.9,0.9,2,1.3,3.4,1.3c0.8,0,1.6-0.2,2.3-0.6s1.2-0.9,1.5-1.5l2.5,1.4
		c-0.6,1.1-1.5,1.9-2.6,2.5C379.7,43.6,378.4,43.9,377.1,43.9z"/>
	<path class="st3" d="M385.2,43.6V28.3h2.7v15.3H385.2z"/>
	<path class="st3" d="M399.3,42.3c-1.1,1.1-2.4,1.6-3.9,1.6s-2.9-0.5-3.9-1.6c-1.1-1.1-1.6-2.4-1.6-3.9c0-1.5,0.5-2.9,1.6-3.9
		c1.1-1.1,2.4-1.6,3.9-1.6s2.9,0.5,3.9,1.6c1.1,1.1,1.6,2.4,1.6,3.9C400.9,39.9,400.3,41.2,399.3,42.3z M393.3,40.4
		c0.5,0.5,1.2,0.8,2,0.8c0.8,0,1.5-0.3,2-0.8c0.5-0.5,0.8-1.2,0.8-2.1s-0.3-1.5-0.8-2.1c-0.5-0.5-1.2-0.8-2-0.8
		c-0.8,0-1.5,0.3-2,0.8c-0.5,0.5-0.8,1.2-0.8,2.1S392.8,39.9,393.3,40.4z"/>
	<path class="st3" d="M409.7,33.2h2.7v10.4h-2.7v-1.2c-0.7,1-1.7,1.5-3.1,1.5c-1.1,0-2.1-0.4-2.8-1.1c-0.7-0.8-1.1-1.8-1.1-3.2v-6.4
		h2.7v6.1c0,0.7,0.2,1.2,0.6,1.6s0.9,0.6,1.5,0.6c0.7,0,1.3-0.2,1.7-0.6c0.4-0.4,0.6-1.1,0.6-1.9V33.2z"/>
	<path class="st3" d="M422.8,29h2.7v14.6h-2.7v-1.2c-0.8,1-1.9,1.5-3.4,1.5c-1.4,0-2.6-0.5-3.6-1.6s-1.5-2.4-1.5-3.9
		c0-1.5,0.5-2.9,1.5-3.9c1-1.1,2.2-1.6,3.6-1.6c1.5,0,2.6,0.5,3.4,1.5V29z M417.8,40.5c0.5,0.6,1.2,0.8,2.1,0.8s1.5-0.3,2.1-0.8
		c0.5-0.6,0.8-1.3,0.8-2.1s-0.3-1.6-0.8-2.1c-0.5-0.6-1.2-0.8-2.1-0.8s-1.5,0.3-2.1,0.8c-0.6,0.6-0.8,1.3-0.8,2.1
		S417.2,40,417.8,40.5z"/>
	<path class="st3" d="M442,31.7h-5.9v3.5h5.7V38h-5.7v5.6h-2.9V29h8.7V31.7z"/>
	<path class="st3" d="M452.9,42.3c-1.1,1.1-2.4,1.6-3.9,1.6s-2.9-0.5-3.9-1.6c-1.1-1.1-1.6-2.4-1.6-3.9c0-1.5,0.5-2.9,1.6-3.9
		c1.1-1.1,2.4-1.6,3.9-1.6s2.9,0.5,3.9,1.6c1.1,1.1,1.6,2.4,1.6,3.9C454.5,39.9,454,41.2,452.9,42.3z M447,40.4
		c0.5,0.5,1.2,0.8,2,0.8c0.8,0,1.5-0.3,2-0.8c0.5-0.5,0.8-1.2,0.8-2.1s-0.3-1.5-0.8-2.1c-0.5-0.5-1.2-0.8-2-0.8
		c-0.8,0-1.5,0.3-2,0.8c-0.5,0.5-0.8,1.2-0.8,2.1S446.4,39.9,447,40.4z"/>
	<path class="st3" d="M459.1,35c0.3-0.7,0.7-1.2,1.2-1.5c0.6-0.3,1.2-0.5,1.9-0.5v3c-0.8-0.1-1.6,0.1-2.2,0.5c-0.6,0.4-1,1.1-1,2.2
		v5h-2.7V33.2h2.7V35z"/>
	<path class="st3" d="M469.8,35.7h-2.4v4.3c0,0.4,0.1,0.6,0.3,0.8c0.2,0.2,0.4,0.3,0.8,0.3c0.3,0,0.8,0,1.3,0v2.4
		c-1.9,0.2-3.2,0-3.9-0.5c-0.8-0.6-1.1-1.6-1.1-3v-4.3h-1.8v-2.6h1.8V31l2.7-0.8v2.9h2.4V35.7z"/>
	<path class="st3" d="M473.2,31.9c-0.4,0-0.8-0.2-1.2-0.5c-0.3-0.3-0.5-0.7-0.5-1.2s0.2-0.8,0.5-1.2c0.3-0.3,0.7-0.5,1.2-0.5
		c0.5,0,0.9,0.2,1.2,0.5s0.5,0.7,0.5,1.2s-0.2,0.8-0.5,1.2C474.1,31.7,473.7,31.9,473.2,31.9z M471.9,43.6V33.2h2.7v10.4H471.9z"/>
	<path class="st3" d="M486.2,33.2v10.4h-2.7v-7.9h-3.1v7.9h-2.7v-7.9h-1.5v-2.6h1.5v-0.1c0-2.9,1.6-4.4,4.9-4.4
		c0.7,0,1.6,0.1,2.4,0.3v2.5c-0.9-0.1-1.7-0.2-2.4-0.2c-0.8,0-1.3,0.1-1.7,0.4s-0.5,0.7-0.5,1.4v0.1H486.2z"/>
	<path class="st3" d="M491,39.5c0.4,1.3,1.3,2,2.9,2c1,0,1.8-0.3,2.3-1l2.2,1.3c-1,1.5-2.5,2.2-4.6,2.2c-1.7,0-3.1-0.5-4.2-1.6
		s-1.6-2.4-1.6-3.9c0-1.6,0.5-2.9,1.5-3.9s2.4-1.6,4-1.6c1.5,0,2.8,0.5,3.8,1.6c1,1.1,1.5,2.4,1.5,3.9c0,0.3,0,0.7-0.1,1.1H491z
		 M490.9,37.4h5.3c-0.2-0.7-0.5-1.2-1-1.6c-0.5-0.3-1-0.5-1.6-0.5c-0.7,0-1.3,0.2-1.8,0.6C491.4,36.2,491.1,36.7,490.9,37.4z"/>
	<path class="st3" d="M508.8,29h2.7v14.6h-2.7v-1.2c-0.8,1-1.9,1.5-3.4,1.5c-1.4,0-2.6-0.5-3.6-1.6s-1.5-2.4-1.5-3.9
		c0-1.5,0.5-2.9,1.5-3.9c1-1.1,2.2-1.6,3.6-1.6c1.5,0,2.6,0.5,3.4,1.5V29z M503.8,40.5c0.5,0.6,1.2,0.8,2.1,0.8s1.5-0.3,2.1-0.8
		c0.5-0.6,0.8-1.3,0.8-2.1s-0.3-1.6-0.8-2.1c-0.5-0.6-1.2-0.8-2.1-0.8s-1.5,0.3-2.1,0.8c-0.6,0.6-0.8,1.3-0.8,2.1
		S503.2,40,503.8,40.5z"/>
	<path class="st3" d="M527.1,33.2h2.7v10.4h-2.7v-1.2c-0.8,1-1.9,1.5-3.4,1.5c-1.4,0-2.6-0.5-3.6-1.6s-1.5-2.4-1.5-3.9
		c0-1.5,0.5-2.9,1.5-3.9c1-1.1,2.2-1.6,3.6-1.6c1.5,0,2.6,0.5,3.4,1.5V33.2z M522.1,40.5c0.5,0.6,1.2,0.8,2.1,0.8s1.5-0.3,2.1-0.8
		c0.5-0.6,0.8-1.3,0.8-2.1s-0.3-1.6-0.8-2.1c-0.6-0.6-1.2-0.8-2.1-0.8s-1.5,0.3-2.1,0.8c-0.5,0.6-0.8,1.3-0.8,2.1
		S521.6,40,522.1,40.5z"/>
	<path class="st3" d="M538.3,32.9c1.4,0,2.6,0.5,3.6,1.6c1,1.1,1.5,2.4,1.5,3.9c0,1.5-0.5,2.9-1.5,3.9s-2.2,1.6-3.6,1.6
		c-1.5,0-2.6-0.5-3.4-1.5v5.4h-2.7V33.2h2.7v1.2C535.7,33.4,536.8,32.9,538.3,32.9z M535.7,40.5c0.5,0.6,1.2,0.8,2.1,0.8
		s1.5-0.3,2.1-0.8c0.5-0.6,0.8-1.3,0.8-2.1s-0.3-1.6-0.8-2.1c-0.6-0.6-1.2-0.8-2.1-0.8s-1.5,0.3-2.1,0.8c-0.5,0.6-0.8,1.3-0.8,2.1
		S535.2,40,535.7,40.5z"/>
	<path class="st3" d="M551.4,32.9c1.4,0,2.6,0.5,3.6,1.6c1,1.1,1.5,2.4,1.5,3.9c0,1.5-0.5,2.9-1.5,3.9s-2.2,1.6-3.6,1.6
		c-1.5,0-2.6-0.5-3.4-1.5v5.4h-2.7V33.2h2.7v1.2C548.8,33.4,549.9,32.9,551.4,32.9z M548.8,40.5c0.5,0.6,1.2,0.8,2.1,0.8
		s1.5-0.3,2.1-0.8c0.5-0.6,0.8-1.3,0.8-2.1s-0.3-1.6-0.8-2.1c-0.6-0.6-1.2-0.8-2.1-0.8s-1.5,0.3-2.1,0.8c-0.5,0.6-0.8,1.3-0.8,2.1
		S548.3,40,548.8,40.5z"/>
	<path class="st3" d="M561.2,43.4c-0.3,0.3-0.8,0.5-1.3,0.5c-0.5,0-0.9-0.2-1.3-0.5c-0.3-0.3-0.5-0.8-0.5-1.3c0-0.5,0.2-0.9,0.5-1.3
		c0.3-0.3,0.8-0.5,1.3-0.5c0.5,0,0.9,0.2,1.3,0.5c0.3,0.3,0.5,0.8,0.5,1.3C561.7,42.6,561.6,43,561.2,43.4z M558.9,38.7l-0.6-5.5V29
		h3.2v4.2l-0.5,5.5H558.9z"/>
</g>
</svg>
