<?xml version="1.0" encoding="utf-8"?>
<!-- Generator: Adobe Illustrator 25.2.3, SVG Export Plug-In . SVG Version: 6.00 Build 0)  -->
<svg version="1.1" id="Layer_1" xmlns="http://www.w3.org/2000/svg" xmlns:xlink="http://www.w3.org/1999/xlink" x="0px" y="0px"
	 viewBox="0 0 150 39.11" style="enable-background:new 0 0 150 39.11;" xml:space="preserve">
<style type="text/css">
	.st0{fill:#8F64F9;}
	.st1{fill:#24CE84;}
	.st2{fill:url(#SVGID_1_);}
	.st3{fill:#383689;}
</style>
<g>
	<g>
		<path class="st0" d="M20.39,8.25h3.5l-3.88-6.72c-1.18-2.04-4.12-2.04-5.29,0L0.43,26.28c-1.18,2.04,0.29,4.58,2.65,4.58h25.07
			L17.74,12.84C16.57,10.8,18.04,8.25,20.39,8.25z"/>
		<path class="st1" d="M48.96,8.25H23.89L34.3,26.28c1.18,2.04-0.29,4.58-2.65,4.58h-3.5l3.88,6.72c1.18,2.04,4.12,2.04,5.29,0
			l14.29-24.75C52.78,10.8,51.31,8.25,48.96,8.25z"/>
		<linearGradient id="SVGID_1_" gradientUnits="userSpaceOnUse" x1="17.4352" y1="30.1168" x2="37.755" y2="5.1195">
			<stop  offset="0" style="stop-color:#00CE93"/>
			<stop  offset="0.0678" style="stop-color:#31D58A"/>
			<stop  offset="0.1765" style="stop-color:#79DE7E"/>
			<stop  offset="0.2741" style="stop-color:#B3E673"/>
			<stop  offset="0.3571" style="stop-color:#DCEB6C"/>
			<stop  offset="0.4222" style="stop-color:#F6EF68"/>
			<stop  offset="0.4614" style="stop-color:#FFF066"/>
		</linearGradient>
		<path class="st2" d="M34.3,26.28L23.89,8.25h-3.5c-2.35,0-3.82,2.55-2.65,4.58l10.41,18.03h3.5C34,30.86,35.47,28.32,34.3,26.28z"
			/>
	</g>
	<g>
		<path class="st3" d="M75.07,21.52H64.88c0.36,1.91,1.95,3.14,4.21,3.14c1.46,0,2.6-0.47,3.53-1.42l1.63,1.89
			c-1.17,1.4-2.99,2.13-5.23,2.13c-4.35,0-7.17-2.82-7.17-6.71c0-3.9,2.84-6.69,6.71-6.69c3.79,0,6.56,2.67,6.56,6.76
			C75.11,20.86,75.09,21.23,75.07,21.52z M64.85,19.49h7.37c-0.24-1.89-1.68-3.19-3.67-3.19C66.58,16.3,65.15,17.58,64.85,19.49z"/>
		<path class="st3" d="M85.94,27.08l-3.33-4.53l-3.36,4.53h-3.36l5.06-6.64L76.11,14h3.38l3.19,4.29L85.86,14h3.28l-4.86,6.4
			l5.08,6.69H85.94z"/>
		<path class="st3" d="M102.23,19.41v7.67h-2.87v-1.59c-0.73,1.13-2.14,1.76-4.08,1.76c-2.97,0-4.84-1.64-4.84-3.92
			c0-2.18,1.46-3.9,5.4-3.9h3.36v-0.2c0-1.79-1.07-2.84-3.23-2.84c-1.46,0-2.97,0.49-3.94,1.3l-1.19-2.23
			c1.39-1.08,3.4-1.62,5.49-1.62C100.06,13.85,102.23,15.64,102.23,19.41z M99.19,22.99v-1.52h-3.14c-2.07,0-2.63,0.78-2.63,1.74
			c0,1.1,0.92,1.81,2.48,1.81C97.39,25.03,98.68,24.34,99.19,22.99z"/>
		<path class="st3" d="M106.12,8.9h3.04v18.18h-3.04V8.9z"/>
		<path class="st3" d="M124.01,19.41v7.67h-2.87v-1.59c-0.73,1.13-2.14,1.76-4.08,1.76c-2.97,0-4.84-1.64-4.84-3.92
			c0-2.18,1.46-3.9,5.4-3.9h3.36v-0.2c0-1.79-1.07-2.84-3.23-2.84c-1.46,0-2.97,0.49-3.94,1.3l-1.19-2.23
			c1.39-1.08,3.4-1.62,5.49-1.62C121.85,13.85,124.01,15.64,124.01,19.41z M120.98,22.99v-1.52h-3.14c-2.07,0-2.63,0.78-2.63,1.74
			c0,1.1,0.92,1.81,2.48,1.81C119.18,25.03,120.47,24.34,120.98,22.99z"/>
		<path class="st3" d="M135.71,26.37c-0.73,0.59-1.82,0.88-2.92,0.88c-2.84,0-4.47-1.52-4.47-4.41v-6.3h-2.14V14.1h2.14v-2.99h3.04
			v2.99h3.48v2.45h-3.48v6.22c0,1.27,0.63,1.96,1.8,1.96c0.63,0,1.24-0.17,1.7-0.54L135.71,26.37z"/>
		<path class="st3" d="M149.94,21.52h-10.19c0.36,1.91,1.95,3.14,4.21,3.14c1.46,0,2.6-0.47,3.53-1.42l1.63,1.89
			c-1.17,1.4-2.99,2.13-5.23,2.13c-4.35,0-7.17-2.82-7.17-6.71c0-3.9,2.84-6.69,6.71-6.69c3.79,0,6.56,2.67,6.56,6.76
			C149.98,20.86,149.96,21.23,149.94,21.52z M139.72,19.49h7.37c-0.24-1.89-1.68-3.19-3.67-3.19
			C141.45,16.3,140.02,17.58,139.72,19.49z"/>
	</g>
</g>
</svg>
