<?xml version="1.0" encoding="utf-8"?>
<!-- Generator: Adobe Illustrator 25.2.3, SVG Export Plug-In . SVG Version: 6.00 Build 0)  -->
<svg version="1.1" id="Layer_1" xmlns="http://www.w3.org/2000/svg" xmlns:xlink="http://www.w3.org/1999/xlink" x="0px" y="0px"
	 viewBox="0 0 50 13" style="enable-background:new 0 0 50 13;" xml:space="preserve">
<style type="text/css">
	.st0{fill:#8F64F9;}
	.st1{fill:#24CE84;}
	.st2{fill:url(#SVGID_1_);}
	.st3{fill:#383689;}
</style>
<g>
	<g>
		<path class="st0" d="M6.9,2.8h1.2L6.8,0.6C6.4-0.1,5.4-0.1,5,0.6L0.3,8.7c-0.4,0.7,0.1,1.5,0.9,1.5h8.3L6,4.3
			C5.7,3.6,6.1,2.8,6.9,2.8z"/>
		<path class="st1" d="M16.4,2.8H8.1l3.4,6c0.4,0.7-0.1,1.5-0.9,1.5H9.5l1.3,2.2c0.4,0.7,1.4,0.7,1.8,0l4.7-8.2
			C17.6,3.6,17.2,2.8,16.4,2.8z"/>
		
			<linearGradient id="SVGID_1_" gradientUnits="userSpaceOnUse" x1="5.9439" y1="5.9116" x2="12.671" y2="14.1873" gradientTransform="matrix(1 0 0 -1 0 15.9267)">
			<stop  offset="0" style="stop-color:#00CE93"/>
			<stop  offset="6.780000e-02" style="stop-color:#31D58A"/>
			<stop  offset="0.1765" style="stop-color:#79DE7E"/>
			<stop  offset="0.2741" style="stop-color:#B3E673"/>
			<stop  offset="0.3571" style="stop-color:#DCEB6C"/>
			<stop  offset="0.4222" style="stop-color:#F6EF68"/>
			<stop  offset="0.4614" style="stop-color:#FFF066"/>
		</linearGradient>
		<path class="st2" d="M11.5,8.7l-3.4-6H6.9C6.1,2.8,5.7,3.6,6,4.3l3.4,6h1.2C11.4,10.3,11.9,9.4,11.5,8.7z"/>
	</g>
	<g>
		<path class="st3" d="M25,7.2h-3.4c0.1,0.6,0.6,1,1.4,1c0.5,0,0.9-0.2,1.2-0.5l0.5,0.6c-0.4,0.5-1,0.7-1.7,0.7
			c-1.4,0-2.4-0.9-2.4-2.2c0-1.3,0.9-2.2,2.2-2.2c1.3,0,2.2,0.9,2.2,2.2C25,7,25,7.1,25,7.2z M21.6,6.5h2.4
			c-0.1-0.6-0.6-1.1-1.2-1.1C22.2,5.4,21.7,5.9,21.6,6.5z"/>
		<path class="st3" d="M28.6,9l-1.1-1.5L26.4,9h-1.1L27,6.8l-1.6-2.1h1.1l1.1,1.4l1.1-1.4h1.1l-1.6,2.1L29.8,9L28.6,9L28.6,9z"/>
		<path class="st3" d="M34,6.5V9h-1V8.5c-0.2,0.4-0.7,0.6-1.4,0.6c-1,0-1.6-0.5-1.6-1.3c0-0.7,0.5-1.3,1.8-1.3H33V6.4
			c0-0.6-0.4-0.9-1.1-0.9c-0.5,0-1,0.2-1.3,0.4l-0.4-0.7c0.5-0.4,1.1-0.5,1.8-0.5C33.3,4.6,34,5.2,34,6.5z M33,7.7V7.2h-1
			c-0.7,0-0.9,0.3-0.9,0.6c0,0.4,0.3,0.6,0.8,0.6C32.4,8.3,32.8,8.1,33,7.7z"/>
		<path class="st3" d="M35.3,3h1v6h-1V3z"/>
		<path class="st3" d="M41.2,6.5V9h-1V8.5c-0.2,0.4-0.7,0.6-1.4,0.6c-1,0-1.6-0.5-1.6-1.3c0-0.7,0.5-1.3,1.8-1.3h1.1V6.4
			c0-0.6-0.4-0.9-1.1-0.9c-0.5,0-1,0.2-1.3,0.4l-0.4-0.7c0.5-0.4,1.1-0.5,1.8-0.5C40.5,4.6,41.2,5.2,41.2,6.5z M40.2,7.7V7.2h-1
			c-0.7,0-0.9,0.3-0.9,0.6c0,0.4,0.3,0.6,0.8,0.6C39.6,8.3,40.1,8.1,40.2,7.7z"/>
		<path class="st3" d="M45.1,8.8c-0.2,0.2-0.6,0.3-1,0.3c-0.9,0-1.5-0.5-1.5-1.5V5.5h-0.7V4.7h0.7v-1h1v1h1.2v0.8h-1.2v2.1
			c0,0.4,0.2,0.6,0.6,0.6c0.2,0,0.4-0.1,0.6-0.2L45.1,8.8z"/>
		<path class="st3" d="M49.8,7.2h-3.4c0.1,0.6,0.6,1,1.4,1c0.5,0,0.9-0.2,1.2-0.5l0.5,0.6c-0.4,0.5-1,0.7-1.7,0.7
			c-1.4,0-2.4-0.9-2.4-2.2c0-1.3,0.9-2.2,2.2-2.2c1.3,0,2.2,0.9,2.2,2.2C49.8,7,49.8,7.1,49.8,7.2z M46.4,6.5h2.4
			c-0.1-0.6-0.6-1.1-1.2-1.1C47,5.4,46.5,5.9,46.4,6.5z"/>
	</g>
</g>
</svg>
